<mxfile host="app.diagrams.net" modified="2023-05-29T12:22:49.387Z" agent="Mozilla/5.0 (X11; Linux x86_64; rv:109.0) Gecko/20100101 Firefox/113.0" version="21.2.2" etag="D6wQytETAqxH-QBkhDfX" type="github">
  <diagram name="PÃ¡gina-1" id="S8Thee_ZFMJdJ4Z6gpYM">
    <mxGraphModel>
      <root>
        <mxCell id="0" />
        <mxCell id="1" parent="0" />
      </root>
    </mxGraphModel>
  </diagram>
</mxfile>
